<svg aria-hidden="true" style="position: absolute; width: 0; height: 0; overflow: hidden;" version="1.1" xmlns="http://www.w3.org/2000/svg" xmlns:xlink="http://www.w3.org/1999/xlink">
<defs>
<symbol id="icon-angle-circle-left" viewBox="0 0 32 32">
<path d="M0 16c0-8.837 7.163-16 16-16s16 7.163 16 16c0 8.837-7.163 16-16 16v0c-8.833-0.010-15.99-7.167-16-15.999v-0.001zM29.333 16c0-7.364-5.97-13.333-13.333-13.333s-13.333 5.97-13.333 13.333c0 7.364 5.97 13.333 13.333 13.333v0c7.36-0.008 13.325-5.973 13.333-13.333v-0.001zM11.448 17.885l6.285 6.283 1.885-1.885-6.285-6.283 6.231-6.231-1.885-1.885-6.231 6.231c-0.482 0.483-0.781 1.149-0.781 1.885s0.298 1.403 0.781 1.885v0z"></path>
</symbol>
<symbol id="icon-angle-circle-right" viewBox="0 0 32 32">
<path d="M32 16c0 8.837-7.163 16-16 16s-16-7.163-16-16c0-8.837 7.163-16 16-16v0c8.833 0.010 15.99 7.167 16 15.999v0.001zM2.667 16c0 7.364 5.97 13.333 13.333 13.333s13.333-5.97 13.333-13.333c0-7.364-5.97-13.333-13.333-13.333v0c-7.36 0.008-13.325 5.973-13.333 13.333v0.001zM20.552 14.115l-6.285-6.283-1.881 1.885 6.281 6.283-6.231 6.231 1.885 1.885 6.231-6.231c0.482-0.483 0.781-1.149 0.781-1.885s-0.298-1.403-0.781-1.885v0z"></path>
</symbol>
<symbol id="icon-basket-shopping-simple" viewBox="0 0 32 32">
<path d="M27.92 10.667c-0.667-5.987-5.76-10.667-11.92-10.667s-11.253 4.68-11.92 10.667h-4.107l2.56 17.893c0.28 1.96 1.987 3.44 3.96 3.44h19.027c1.973 0 3.68-1.48 3.96-3.44l2.56-17.893h-4.107zM16 2.667c4.693 0 8.573 3.48 9.227 8h-18.453c0.653-4.52 4.533-8 9.227-8z"></path>
</symbol>
<symbol id="icon-box-heart" viewBox="0 0 32 32">
<path d="M1.333 32h29.333v-18.667h-29.333v18.667zM13.333 17.333c1.043 0 1.969 0.36 2.667 0.969 0.697-0.609 1.624-0.969 2.667-0.969 2.205 0 4 1.889 4 4.213 0 3.639-5.336 7.181-5.944 7.575l-0.723 0.465-0.723-0.465c-0.609-0.392-5.944-3.936-5.944-7.575 0-2.324 1.795-4.213 4-4.213zM12 21.547c0-0.853 0.599-1.547 1.333-1.547 0.664 0 1.333 0.412 1.333 1.333h2.667c0-0.921 0.669-1.333 1.333-1.333 0.735 0 1.333 0.695 1.333 1.547 0 1.387-2.148 3.489-4 4.835-1.852-1.347-4-3.448-4-4.835zM32 4v6.667h-32v-6.667c0-2.209 1.791-4 4-4h24c2.209 0 4 1.791 4 4z"></path>
</symbol>
<symbol id="icon-heart" viewBox="0 0 32 32">
<path d="M23.333 1.223c-3.145 0.050-5.871 1.794-7.311 4.357l-0.022 0.043c-1.463-2.606-4.189-4.35-7.326-4.4l-0.007-0c-4.835 0.217-8.673 4.189-8.673 9.058 0 0.12 0.002 0.24 0.007 0.359l-0.001-0.017c0 9.033 14.608 19.467 15.229 19.909l0.771 0.545 0.771-0.545c0.621-0.44 15.229-10.876 15.229-19.909 0.004-0.102 0.006-0.222 0.006-0.342 0-4.869-3.838-8.842-8.654-9.057l-0.019-0.001zM16 27.795c-4.337-3.24-13.333-11.2-13.333-17.172-0.006-0.103-0.009-0.224-0.009-0.345 0-3.397 2.647-6.176 5.991-6.387l0.018-0.001c3.362 0.212 6.009 2.991 6.009 6.388 0 0.121-0.003 0.242-0.010 0.362l0.001-0.017h2.667c-0.006-0.103-0.009-0.224-0.009-0.345 0-3.397 2.647-6.176 5.991-6.387l0.018-0.001c3.362 0.212 6.009 2.991 6.009 6.388 0 0.121-0.003 0.242-0.010 0.362l0.001-0.017c0 5.975-8.996 13.932-13.333 17.172z"></path>
</symbol>
<symbol id="icon-instagram" viewBox="0 0 32 32">
<path d="M16 2.883c4.272 0 4.779 0.016 6.465 0.093 1.744 0.080 3.54 0.477 4.811 1.748 1.283 1.283 1.668 3.061 1.748 4.811 0.077 1.687 0.093 2.193 0.093 6.465s-0.016 4.779-0.093 6.465c-0.079 1.735-0.485 3.548-1.748 4.811-1.283 1.283-3.060 1.668-4.811 1.748-1.687 0.077-2.193 0.093-6.465 0.093s-4.779-0.016-6.465-0.093c-1.721-0.079-3.559-0.495-4.811-1.748-1.276-1.276-1.668-3.072-1.748-4.811-0.077-1.687-0.093-2.193-0.093-6.465s0.016-4.779 0.093-6.465c0.079-1.728 0.489-3.552 1.748-4.811 1.28-1.28 3.065-1.668 4.811-1.748 1.687-0.077 2.193-0.093 6.465-0.093zM16 0c-4.345 0-4.891 0.019-6.597 0.096-2.473 0.113-4.929 0.801-6.717 2.589-1.795 1.795-2.476 4.245-2.589 6.717-0.077 1.707-0.096 2.252-0.096 6.597s0.019 4.891 0.096 6.597c0.113 2.471 0.804 4.933 2.589 6.717 1.793 1.793 4.248 2.476 6.717 2.589 1.707 0.077 2.252 0.096 6.597 0.096s4.891-0.019 6.597-0.096c2.472-0.113 4.931-0.803 6.717-2.589 1.796-1.796 2.476-4.245 2.589-6.717 0.077-1.707 0.096-2.252 0.096-6.597s-0.019-4.891-0.096-6.597c-0.113-2.473-0.803-4.931-2.589-6.717-1.791-1.791-4.252-2.477-6.717-2.589-1.707-0.077-2.252-0.096-6.597-0.096z"></path>
<path d="M16 7.784c-4.537 0-8.216 3.679-8.216 8.216s3.679 8.216 8.216 8.216 8.216-3.679 8.216-8.216c0-4.537-3.679-8.216-8.216-8.216zM16 21.333c-2.945 0-5.333-2.388-5.333-5.333s2.388-5.333 5.333-5.333 5.333 2.388 5.333 5.333-2.388 5.333-5.333 5.333z"></path>
<path d="M26.461 7.459c0 1.060-0.86 1.92-1.92 1.92s-1.92-0.86-1.92-1.92c0-1.060 0.86-1.92 1.92-1.92s1.92 0.86 1.92 1.92z"></path>
</symbol>
<symbol id="icon-telegram" viewBox="0 0 32 32">
<path d="M16 0c-8.836 0-16 7.164-16 16s7.164 16 16 16 16-7.164 16-16-7.164-16-16-16zM23.416 10.881c-0.24 2.529-1.283 8.669-1.812 11.503-0.224 1.2-0.667 1.601-1.093 1.64-0.929 0.085-1.635-0.615-2.535-1.204-1.408-0.923-2.204-1.497-3.571-2.399-1.58-1.041-0.556-1.613 0.344-2.548 0.236-0.245 4.329-3.969 4.409-4.307 0.009-0.043 0.020-0.2-0.075-0.283s-0.232-0.055-0.331-0.032c-0.141 0.032-2.391 1.519-6.749 4.46-0.639 0.439-1.217 0.652-1.736 0.641-0.571-0.012-1.669-0.323-2.487-0.589-1.001-0.325-1.799-0.499-1.729-1.051 0.036-0.288 0.432-0.583 1.189-0.884 4.664-2.032 7.775-3.372 9.331-4.020 4.444-1.848 5.367-2.169 5.969-2.18 0.755-0.011 0.936 0.612 0.875 1.252z"></path>
</symbol>
<symbol id="icon-user" viewBox="0 0 32 32">
<path d="M24 8c0 4.418-3.582 8-8 8s-8-3.582-8-8c0-4.418 3.582-8 8-8s8 3.582 8 8z"></path>
<path d="M16 18.667c-6.624 0.007-11.993 5.376-12 12 0 0.736 0.597 1.333 1.333 1.333h21.333c0.736 0 1.333-0.597 1.333-1.333-0.007-6.624-5.376-11.993-12-12z"></path>
</symbol>
</defs>
</svg>
